<svg version="1.1" xmlns="http://www.w3.org/2000/svg" xmlns:xlink="http://www.w3.org/1999/xlink" width="114.97129" height="72.97633" viewBox="0,0,114.97129,72.97633"><g transform="translate(-185.41278,-152.39996)"><g data-paper-data="{&quot;isPaintingLayer&quot;:true}" fill="none" fill-rule="nonzero" stroke="none" stroke-width="none" stroke-linecap="none" stroke-linejoin="miter" stroke-miterlimit="10" stroke-dasharray="" stroke-dashoffset="0" font-family="none" font-weight="none" font-size="none" text-anchor="none" style="mix-blend-mode: normal"><path d="M300.3837,181.88751c-0.04151,4.08383 -3.62068,7.36598 -7.99432,7.33086c-4.37364,-0.03512 -7.88554,-3.37418 -7.84404,-7.45802c0.04151,-4.08383 3.62068,-7.36597 7.99433,-7.33086c4.37364,0.03512 7.88553,3.37419 7.84403,7.45802z" data-paper-data="{&quot;origPos&quot;:null,&quot;origRot&quot;:0}" fill="#ffffff" stroke="none" stroke-width="0" stroke-linecap="butt"/><path d="M186.10924,184.7279v-21.49225h23.12753v21.49225z" fill="#ffffff" stroke="none" stroke-width="0" stroke-linecap="butt"/><path d="M291.4668,181.45734v-18.22169h7.70918v18.22169z" fill="#ffffff" stroke="none" stroke-width="0" stroke-linecap="butt"/><path d="M299.37364,163.98747c-0.0415,4.08383 -3.62068,7.36598 -7.99432,7.33086c-4.37364,-0.03512 -7.88554,-3.37418 -7.84404,-7.45802c0.04151,-4.08383 3.62068,-7.36597 7.99433,-7.33086c4.37364,0.03512 7.88554,3.37419 7.84403,7.45802z" data-paper-data="{&quot;origPos&quot;:null,&quot;origRot&quot;:0}" fill="#ffffff" stroke="none" stroke-width="0" stroke-linecap="butt"/><path d="M201.25149,182.36879c-0.04151,4.08383 -3.62068,7.36598 -7.99432,7.33086c-4.37364,-0.03512 -7.88554,-3.37418 -7.84403,-7.45802c0.04151,-4.08383 3.62068,-7.36597 7.99433,-7.33086c4.37364,0.03512 7.88554,3.37419 7.84403,7.45802z" data-paper-data="{&quot;origPos&quot;:null,&quot;origRot&quot;:0}" fill="#ffffff" stroke="none" stroke-width="0" stroke-linecap="butt"/><path d="M193.39542,189.87084v-33.66667h98.62353v33.66667z" data-paper-data="{&quot;origPos&quot;:null}" fill="#ffffff" stroke="none" stroke-width="0" stroke-linecap="butt"/><text transform="translate(212,182.63333) scale(0.69502,0.69502)" font-size="40" xml:space="preserve" data-paper-data="{&quot;origPos&quot;:null}" fill="#80ccff" fill-rule="nonzero" stroke="none" stroke-width="1" stroke-linecap="butt" stroke-linejoin="miter" stroke-miterlimit="10" stroke-dasharray="" stroke-dashoffset="0" font-family="Sans Serif" font-weight="normal" text-anchor="start" style="mix-blend-mode: normal"><tspan x="0" dy="0">A</tspan></text><text transform="translate(233.89542,186.95417) scale(0.42055,0.42055)" font-size="40" xml:space="preserve" data-paper-data="{&quot;origPos&quot;:null}" fill="#80ccff" fill-rule="nonzero" stroke="none" stroke-width="1" stroke-linecap="butt" stroke-linejoin="miter" stroke-miterlimit="10" stroke-dasharray="" stroke-dashoffset="0" font-family="Sans Serif" font-weight="normal" text-anchor="start" style="mix-blend-mode: normal"><tspan x="0" dy="0">SS</tspan></text><text transform="translate(251.39542,186.80376) scale(0.55471,0.52695)" font-size="40" xml:space="preserve" data-paper-data="{&quot;origPos&quot;:null}" fill="#80ccff" fill-rule="nonzero" stroke="none" stroke-width="1" stroke-linecap="butt" stroke-linejoin="miter" stroke-miterlimit="10" stroke-dasharray="" stroke-dashoffset="0" font-family="Sans Serif" font-weight="normal" text-anchor="start" style="mix-blend-mode: normal"><tspan x="0" dy="0">C</tspan></text><path d="M201.89526,163.6625c-0.0415,4.08383 -3.62068,7.36597 -7.99432,7.33085c-4.37364,-0.03512 -7.88553,-3.37418 -7.84404,-7.45802c0.0415,-4.08383 3.62068,-7.36597 7.99432,-7.33086c4.37364,0.03512 7.88553,3.37418 7.84403,7.45802z" data-paper-data="{&quot;origPos&quot;:null,&quot;origRot&quot;:0}" fill="#ffffff" stroke="none" stroke-width="0" stroke-linecap="butt"/><text transform="translate(227.72876,165.58522) scale(0.15468,0.15468)" font-size="40" xml:space="preserve" data-paper-data="{&quot;origPos&quot;:null}" fill="#80ccff" fill-rule="nonzero" stroke="none" stroke-width="1" stroke-linecap="butt" stroke-linejoin="miter" stroke-miterlimit="10" stroke-dasharray="" stroke-dashoffset="0" font-family="Sans Serif" font-weight="normal" text-anchor="start" style="mix-blend-mode: normal"><tspan x="0" dy="0">DATA PROTECT BY</tspan></text><text transform="translate(194.72876,187.7875) scale(0.07386,0.07386)" font-size="40" xml:space="preserve" data-paper-data="{&quot;origPos&quot;:null}" fill="#80ccff" fill-rule="nonzero" stroke="none" stroke-width="1" stroke-linecap="butt" stroke-linejoin="miter" stroke-miterlimit="10" stroke-dasharray="" stroke-dashoffset="0" font-family="Sans Serif" font-weight="normal" text-anchor="start" style="mix-blend-mode: normal"><tspan x="0" dy="0">C3021</tspan></text><path d="M193.21953,177.90312v-10.83334h16.5v10.83334z" fill="#ffffff" stroke="#80ccff" stroke-width="1" stroke-linecap="butt"/><path d="M202.57387,166.98979c0,0.85367 -0.64589,1.54569 -1.44265,1.54569c-0.79675,0 -1.44266,-0.69203 -1.44266,-1.54569c0,-0.85367 0.6459,-1.5457 1.44266,-1.5457c0.79675,0 1.44265,0.69204 1.44265,1.5457z" data-paper-data="{&quot;origPos&quot;:null}" fill="#ffffff" stroke="#80ccff" stroke-width="1" stroke-linecap="butt"/><path d="M194.8368,170.31212l6.15836,-0.09775" fill="none" stroke="#80ccff" stroke-width="1" stroke-linecap="round"/><path d="M194.73904,171.9739l13.78299,-0.09775" data-paper-data="{&quot;origPos&quot;:null}" fill="none" stroke="#80ccff" stroke-width="1" stroke-linecap="round"/><path d="M198.45361,173.63568h-3.71457" data-paper-data="{&quot;origPos&quot;:null}" fill="none" stroke="#80ccff" stroke-width="1" stroke-linecap="round"/><path d="M194.64129,175.39521h13.48974" fill="none" stroke="#80ccff" stroke-width="1" stroke-linecap="round"/><path d="M207.08311,168.629l-1.05845,1.77878l-0.61051,-0.50446" data-paper-data="{&quot;origRot&quot;:0,&quot;origPos&quot;:null}" fill="none" stroke="#80ccff" stroke-width="1" stroke-linecap="round"/><path d="M291.4668,187.99846v-30.83671h0.70083v30.83671z" fill="#ffffff" stroke="none" stroke-width="0" stroke-linecap="butt"/><path d="M281.88873,225.37629v-0.93445h5.37306v0.93445z" fill="#ffffff" stroke="none" stroke-width="0" stroke-linecap="butt"/><text transform="translate(271.25319,175.49401) scale(0.1511,0.13666)" font-size="40" xml:space="preserve" data-paper-data="{&quot;origPos&quot;:null}" fill="#80ccff" fill-rule="nonzero" stroke="none" stroke-width="1" stroke-linecap="butt" stroke-linejoin="miter" stroke-miterlimit="10" stroke-dasharray="" stroke-dashoffset="0" font-family="Sans Serif" font-weight="normal" text-anchor="start" style="mix-blend-mode: normal"><tspan x="0" dy="0">3rd GEN</tspan></text><text transform="translate(271.72041,182.26971) scale(0.15331,0.15331)" font-size="40" xml:space="preserve" data-paper-data="{&quot;origPos&quot;:null}" fill="#80ccff" fill-rule="nonzero" stroke="none" stroke-width="1" stroke-linecap="butt" stroke-linejoin="miter" stroke-miterlimit="10" stroke-dasharray="" stroke-dashoffset="0" font-family="Sans Serif" font-weight="normal" text-anchor="start" style="mix-blend-mode: normal"><tspan x="0" dy="0">RSA+AES</tspan></text><text transform="translate(194.65034,182.70151) scale(0.11074,0.11074)" font-size="40" xml:space="preserve" data-paper-data="{&quot;origPos&quot;:null}" fill="#80ccff" fill-rule="nonzero" stroke="none" stroke-width="1" stroke-linecap="butt" stroke-linejoin="miter" stroke-miterlimit="10" stroke-dasharray="" stroke-dashoffset="0" font-family="Sans Serif" font-weight="normal" text-anchor="start" style="mix-blend-mode: normal"><tspan x="0" dy="0">DSEV</tspan></text></g></g></svg>